<svg xmlns="http://www.w3.org/2000/svg" viewBox="0 -0.5 10 32" shape-rendering="crispEdges">
  <path stroke="#00a2e8" d="M4 0h1M2 1h6M1 2h8M0 3h10M0 4h1m8 0h1M0 5h1m2 0h1m3 0h1m1 0h1M0 6h1m2 0h1m3 0h1m1 0h1M0 7h1m8 0h1M0 8h1m8 0h1M0 9h10M0 10h1m8 0h1M0 11h1m8 0h1M0 12h1m8 0h1M0 13h1m2 0h1m5 0h1M0 14h1m2 0h1m5 0h1M0 15h1m2 0h1m5 0h1M0 16h1m2 0h1m5 0h1M0 17h1m2 0h1m5 0h1M0 18h1m2 0h1m5 0h1M0 19h1m2 0h1m5 0h1M0 20h1m8 0h1M0 21h1m8 0h1M0 22h1m8 0h1M0 23h1m8 0h1M0 24h1m8 0h1M0 25h1m8 0h1M0 26h10M0 27h1m8 0h1M0 28h1m8 0h1M0 29h1m8 0h1M0 30h1m8 0h1M0 31h1m8 0h1"/>
  <path stroke="#fff" d="M1 4h8M1 5h2m1 0h3m1 0h1M1 6h2m1 0h3m1 0h1M1 7h8M1 8h8m-8 2h8m-8 1h8m-8 1h8m-8 1h2m1 0h5m-8 1h2m1 0h5m-8 1h2m1 0h5m-8 1h2m1 0h5m-8 1h2m1 0h5m-8 1h2m1 0h5m-8 1h2m1 0h5m-8 1h8m-8 1h8m-8 1h8m-8 1h8m-8 1h8m-8 1h8"/>
</svg>
